<svg width="639" height="573" viewBox="0 0 639 573" fill="none" xmlns="http://www.w3.org/2000/svg">
<circle cx="541.5" cy="185.5" r="97.5" fill="#F72FFB" fill-opacity="0.15"/>
<circle cx="253.5" cy="251.5" r="251.5" fill="white" fill-opacity="0.16"/>
<circle cx="124" cy="437" r="124" fill="#00D1FF" fill-opacity="0.09"/>
<g clip-path="url(#clip0)">
<path d="M491.619 362.785V497.039L514.07 533.637L515.779 536.421H604.366L606.156 362.785H491.619Z" fill="#E6E6E6"/>
<path opacity="0.1" d="M491.619 362.785V497.039L514.07 533.637L515.448 362.785H491.619Z" fill="black"/>
<path d="M277.756 359.205V493.46L255.305 530.057L253.596 532.84H165.009L163.219 359.205H277.756Z" fill="#E6E6E6"/>
<path opacity="0.1" d="M277.756 359.205V493.46L255.305 530.057L253.927 359.205H277.756Z" fill="black"/>
<path d="M633 356.52V364.575H151.587V352.94L196.328 329.669H593.628L633 356.52Z" fill="#E6E6E6"/>
<path opacity="0.1" d="M633 356.52V364.575H151.587V352.94L633 356.52Z" fill="black"/>
<path d="M220.488 396.796H199.012L190.064 390.531H230.331L220.488 396.796Z" fill="#3F3D56"/>
<path d="M220.488 422.752H199.012L190.064 416.487H230.331L220.488 422.752Z" fill="#3F3D56"/>
<path d="M220.488 459.449H199.012L190.064 453.183H230.331L220.488 459.449Z" fill="#3F3D56"/>
<path d="M220.488 496.145H199.012L190.064 489.88H230.331L220.488 496.145Z" fill="#3F3D56"/>
<path d="M548.887 400.376H570.363L579.311 394.111H539.044L548.887 400.376Z" fill="#3F3D56"/>
<path d="M548.887 426.332H570.363L579.311 420.067H539.044L548.887 426.332Z" fill="#3F3D56"/>
<path d="M548.887 463.029H570.363L579.311 456.764H539.044L548.887 463.029Z" fill="#3F3D56"/>
<path d="M548.887 499.725H570.363L579.311 493.46H539.044L548.887 499.725Z" fill="#3F3D56"/>
<path d="M563.511 174.417H382.716C381.818 174.417 380.929 174.594 380.099 174.938C379.269 175.281 378.516 175.785 377.881 176.42C377.246 177.055 376.742 177.809 376.399 178.639C376.055 179.469 375.878 180.358 375.878 181.256V303.073C375.878 303.972 376.055 304.861 376.399 305.691C376.742 306.521 377.246 307.275 377.881 307.91C378.516 308.545 379.269 309.048 380.099 309.392C380.929 309.736 381.818 309.913 382.716 309.912H451.347L448.776 326.333C448.776 326.333 434.082 334.141 444.414 334.371C454.746 334.6 503.421 334.371 503.421 334.371C503.421 334.371 512.834 334.371 497.91 326.103L495.492 309.912H563.511C564.409 309.913 565.299 309.736 566.128 309.392C566.958 309.048 567.712 308.545 568.347 307.91C568.981 307.275 569.485 306.521 569.829 305.691C570.172 304.861 570.349 303.972 570.349 303.073V181.256C570.349 180.358 570.172 179.469 569.829 178.639C569.485 177.809 568.981 177.055 568.347 176.42C567.712 175.785 566.958 175.281 566.128 174.938C565.299 174.594 564.409 174.417 563.511 174.417Z" fill="#3F3D56"/>
<path d="M563.805 181.651H382.422V283.158H563.805V181.651Z" fill="#894EA5"/>
<path d="M473.114 179.584C473.748 179.584 474.262 179.07 474.262 178.436C474.262 177.802 473.748 177.288 473.114 177.288C472.48 177.288 471.966 177.802 471.966 178.436C471.966 179.07 472.48 179.584 473.114 179.584Z" fill="#F2F2F2"/>
<path d="M473.114 304.975C475.523 304.975 477.476 303.021 477.476 300.612C477.476 298.202 475.523 296.248 473.114 296.248C470.704 296.248 468.751 298.202 468.751 300.612C468.751 303.021 470.704 304.975 473.114 304.975Z" fill="#F2F2F2"/>
<path d="M466.316 346.772V349.069H342.792V347.231L342.961 346.772L346.006 338.504H463.79L466.316 346.772Z" fill="#3F3D56"/>
<path d="M513.852 344.524C513.627 345.486 512.777 346.501 510.858 347.461C503.97 350.906 489.964 346.542 489.964 346.542C489.964 346.542 479.173 344.705 479.173 339.882C479.476 339.675 479.792 339.487 480.119 339.32C483.015 337.787 492.617 334.006 509.642 339.48C510.896 339.874 512.017 340.608 512.878 341.601C513.26 341.976 513.547 342.437 513.716 342.945C513.886 343.453 513.932 343.994 513.852 344.524Z" fill="#3F3D56"/>
<path opacity="0.1" d="M513.852 344.524C505.421 347.755 497.906 347.996 490.194 342.638C487.278 340.481 483.746 339.318 480.119 339.32C483.015 337.787 492.617 334.006 509.642 339.48C510.896 339.874 512.017 340.608 512.878 341.601C513.26 341.976 513.547 342.437 513.717 342.945C513.886 343.453 513.932 343.994 513.852 344.524Z" fill="black"/>
<path d="M503.281 342.638C504.93 342.638 506.266 342.227 506.266 341.719C506.266 341.212 504.93 340.801 503.281 340.801C501.633 340.801 500.296 341.212 500.296 341.719C500.296 342.227 501.633 342.638 503.281 342.638Z" fill="#F2F2F2"/>
<path opacity="0.1" d="M466.316 346.772V349.069H342.792V347.231L342.961 346.772H466.316Z" fill="black"/>
<path d="M185.681 87.0001C184.428 86.8971 183.172 87.1776 182.082 87.8044C181.011 88.538 180.336 89.8231 179.647 91.019C177.013 95.6458 173.446 99.6751 169.174 102.852C166.062 105.132 162.106 107.975 162.638 112.179C162.919 113.567 163.432 114.898 164.155 116.116C167.026 121.913 174.86 126.392 174.089 133.006C176.941 128.23 173.126 125.869 175.978 121.093C177.337 118.818 179.696 116.251 181.747 117.679C182.434 118.158 182.884 119.015 183.599 119.435C185.305 120.436 187.12 118.522 188.63 117.166C193.837 112.491 201.242 113.715 207.722 115.172C210.781 115.86 214.141 116.762 215.95 119.687C218.327 123.532 213.691 127.684 212.519 132.031C212.424 132.402 212.419 132.79 212.506 133.163C212.593 133.535 212.769 133.881 213.019 134.171C213.268 134.46 213.585 134.685 213.94 134.826C214.296 134.967 214.68 135.02 215.061 134.979C217.005 134.788 219.308 134.63 219.423 133.777C221.869 133.864 224.867 133.587 225.915 131.039C226.235 130.031 226.405 128.981 226.417 127.924C226.802 123.644 228.618 119.74 229.821 115.666C231.024 111.593 231.547 106.819 229.517 103.208C228.792 102.006 227.896 100.917 226.857 99.9745C215.336 88.8226 200.189 86.9835 185.681 87.0001Z" fill="#3E3D57"/>
<path d="M176.595 141.36C176.595 141.36 179.1 162.245 169.913 163.916C160.726 165.587 178.265 193.99 178.265 193.99L220.025 199.002L210.003 165.587C210.003 165.587 203.321 163.08 207.497 146.372C211.673 129.664 176.595 141.36 176.595 141.36Z" fill="#FFB8B8"/>
<path d="M151.121 500.164L154.462 546.111H172.001L166.99 500.164H151.121Z" fill="#FFB8B8"/>
<path d="M279.742 413.282L282.248 451.71L301.458 443.357L293.94 411.612L279.742 413.282Z" fill="#FFB8B8"/>
<path d="M138.593 324.73C138.593 324.73 139.428 373.183 144.439 389.056C149.451 404.928 148.615 405.764 147.78 408.27C146.945 410.776 146.11 409.105 146.11 413.282C146.11 417.459 144.439 483.456 146.11 489.304C147.78 495.151 141.099 505.176 146.11 506.012C151.121 506.847 174.507 506.012 175.342 500.999C176.177 495.987 168.66 494.316 172.001 490.974C175.342 487.633 180.353 419.13 180.353 419.13L192.046 371.512L213.761 346.45H259.697L273.896 401.587C273.896 401.587 268.049 417.459 272.225 417.459C276.402 417.459 301.458 422.472 301.458 404.093C301.458 385.714 293.106 331.413 291.435 329.742C289.765 328.072 292.27 322.224 289.765 319.718C287.259 317.211 258.027 299.668 247.169 296.326C236.312 292.985 221.08 289.008 221.08 289.008L138.593 324.73Z" fill="#3E3D57"/>
<path d="M301.458 436.674C301.458 436.674 288.93 432.497 283.083 445.028C277.237 457.558 279.742 460.9 279.742 460.9C279.742 460.9 298.952 467.583 302.293 464.242C303.746 462.788 308.362 462.283 313.113 462.176C320.348 462.014 322.274 451.774 315.44 449.39C315.236 449.319 315.03 449.257 314.821 449.204C308.139 447.534 301.458 436.674 301.458 436.674Z" fill="#3E3D57"/>
<path d="M195.387 155.144C209.225 155.144 220.443 143.923 220.443 130.082C220.443 116.241 209.225 105.02 195.387 105.02C181.549 105.02 170.331 116.241 170.331 130.082C170.331 143.923 181.549 155.144 195.387 155.144Z" fill="#FFB8B8"/>
<path d="M162.814 174.358C162.814 174.358 203.739 182.712 213.761 169.346C223.784 155.979 227.96 206.939 227.96 206.939L232.971 260.404L225.454 289.643C225.454 289.643 186.2 321.388 173.672 323.895C161.143 326.401 141.934 328.072 141.934 328.072C141.934 328.072 147.78 235.342 147.78 233.672C147.78 232.001 162.814 174.358 162.814 174.358Z" fill="white"/>
<path d="M175.26 158.691C175.26 158.691 166.155 153.473 163.649 158.486C161.143 163.498 137.758 176.029 135.252 176.029C132.747 176.029 140.263 245.367 136.923 253.721C133.582 262.075 117.713 323.059 126.9 328.072C136.087 333.084 129.406 323.059 138.593 335.59C147.78 348.121 192.881 348.121 195.387 343.109C197.892 338.096 175.342 300.503 179.518 265.417C183.694 230.33 190.376 181.877 184.529 175.194C178.683 168.51 175.26 158.691 175.26 158.691Z" fill="#3E3D57"/>
<path d="M205.409 164.333L206.573 160.329C206.573 160.329 241.323 171.852 242.993 179.371C244.664 186.889 243.829 239.519 237.982 243.696C232.136 247.873 223.784 254.557 229.63 264.581C235.477 274.606 242.158 285.466 247.169 286.302C252.181 287.137 261.368 292.985 258.862 298.833C256.357 304.68 226.289 293.82 226.289 293.82C226.289 293.82 206.244 278.783 207.08 255.392C207.915 232.001 205.409 164.333 205.409 164.333Z" fill="#3E3D57"/>
<path d="M234.641 262.911L214.596 300.503C214.596 300.503 185.364 330.578 202.068 333.919C218.773 337.261 227.96 306.351 227.96 306.351L249.675 275.442L234.641 262.911Z" fill="#FFB8B8"/>
<path d="M186.902 93.5575C185.892 93.4827 184.88 93.6789 183.972 94.126C183.15 94.7262 182.473 95.5025 181.99 96.398C179.762 99.7498 176.858 102.598 173.464 104.761C170.931 106.373 167.711 108.382 168.144 111.354C168.379 112.35 168.798 113.294 169.379 114.137C171.724 118.275 172.657 123.064 172.038 127.781L179.003 117.654C180.109 116.046 182.03 114.232 183.699 115.241C184.258 115.579 184.625 116.186 185.207 116.482C186.596 117.19 188.073 115.837 189.302 114.879C193.541 111.574 199.569 112.44 204.844 113.469C207.334 113.955 210.07 114.593 211.542 116.66C213.988 120.095 211.434 125.058 212.861 129.026C213.261 128.747 213.6 128.389 213.859 127.976C214.118 127.562 214.292 127.101 214.369 126.619C216.361 126.681 218.801 126.485 219.654 124.684C219.913 123.978 220.052 123.234 220.063 122.482C220.376 119.457 221.854 116.698 222.834 113.819C223.813 110.94 224.239 107.566 222.586 105.013C221.981 104.148 221.252 103.378 220.421 102.728C211.042 94.8457 198.712 93.5458 186.902 93.5575Z" fill="#3E3D57"/>
<path d="M234.641 176.029L242.423 178.095C242.423 178.095 260.533 224.482 256.357 256.227C252.181 287.973 249.675 281.289 249.675 281.289C249.675 281.289 242.993 266.252 227.96 269.594L234.641 176.029Z" fill="#3E3D57"/>
<path d="M152.278 540.038C150.264 542.776 150.668 546.689 148.884 549.582C147.337 552.09 144.423 553.404 142.489 555.626C141.871 556.365 141.321 557.156 140.844 557.992C139.05 560.998 137.592 564.851 139.359 567.874C140.78 570.305 143.769 571.255 146.509 571.903C149.973 572.722 153.572 573.377 157.076 572.751C160.579 572.126 164.004 569.98 165.253 566.646C165.499 565.808 165.79 564.984 166.127 564.178C168.026 560.439 173.983 560.398 175.927 556.682C177.287 554.081 176.037 550.937 174.787 548.281L170.97 540.169C169.703 537.478 164.568 539.026 161.891 538.381C158.399 537.539 154.79 536.612 152.278 540.038Z" fill="#3E3D57"/>
<path d="M124.395 279.618L159.473 333.919C159.473 333.919 181.188 361.488 187.87 348.957C194.552 336.426 164.484 315.541 164.484 315.541L141.934 273.771L124.395 279.618Z" fill="#FFB8B8"/>
<path d="M141.934 177.7L135.252 176.029C135.252 176.029 121.889 180.206 118.548 197.749C115.207 215.293 117.713 285.466 121.889 286.302C126.065 287.137 142.514 274.083 145.147 276.851C147.78 279.618 139.428 265.417 141.934 257.898C144.439 250.38 141.934 177.7 141.934 177.7Z" fill="#3E3D57"/>
<path d="M455.946 214.989H434.359V220.187H455.946V214.989Z" fill="white"/>
<path d="M530.7 214.989H523.105V220.187H530.7V214.989Z" fill="white"/>
<path d="M545.89 214.989H538.295V220.187H545.89V214.989Z" fill="white"/>
<path d="M515.109 214.989H463.541V220.187H515.109V214.989Z" fill="white"/>
<path d="M428.763 248.577H407.176V253.775H428.763V248.577Z" fill="white"/>
<path d="M503.517 248.577H495.921V253.775H503.517V248.577Z" fill="white"/>
<path d="M518.707 248.577H511.112V253.775H518.707V248.577Z" fill="white"/>
<path d="M487.926 248.577H436.358V253.775H487.926V248.577Z" fill="white"/>
<path d="M517.908 226.585H496.321V231.783H517.908V226.585Z" fill="white"/>
<path d="M547.09 226.585H525.503V231.783H547.09V226.585Z" fill="white"/>
<path d="M414.771 226.585H407.176V231.783H414.771V226.585Z" fill="white"/>
<path d="M429.962 226.585H422.367V231.783H429.962V226.585Z" fill="white"/>
<path d="M489.125 226.585H437.557V231.783H489.125V226.585Z" fill="white"/>
<path d="M473.135 237.781H451.549V242.979H473.135V237.781Z" fill="white"/>
<path d="M443.953 237.781H422.367V242.979H443.953V237.781Z" fill="white"/>
<path d="M414.771 237.781H407.176V242.979H414.771V237.781Z" fill="white"/>
<path d="M547.09 237.781H539.494V242.979H547.09V237.781Z" fill="white"/>
<path d="M531.899 237.781H480.331V242.979H531.899V237.781Z" fill="white"/>
</g>
<defs>
<clipPath id="clip0">
<rect width="516" height="486" fill="white" transform="translate(117 87)"/>
</clipPath>
</defs>
</svg>